<svg xmlns="http://www.w3.org/2000/svg" viewBox="0 0 800 227.83"><path d="M683.68 81.06a13.09 13.09 0 0 1 18.47-18.56l23.33 23.44L790 21.16A52.07 52.07 0 0 0 748.16 0H706a52.12 52.12 0 0 0-51.85 52.09v97.66h94A52.12 52.12 0 0 0 800 97.66V52.09a20.41 20.41 0 0 0-.32-4.24l-74.53 75.2zM50.07 174.9c0 3.55-1.8 6.36-6.56 6.41-2.46 0-4.77-1.58-7.53-2.77a27.38 27.38 0 0 0-10.64-2.35c-4.9 0-8.74 1-8.76 4.72s2.83 4.73 11.9 7.09c13.41 3.55 23.15 7.85 23.15 20.47 0 11.67-9.87 19-25.49 18.92-8.68 0-17-2.32-22.52-6.27A8.16 8.16 0 0 1 0 214c0-3.05 2.71-5.57 6.41-5.49 2.76.06 4.71 1.22 6.68 2.41a24.7 24.7 0 0 0 13.84 4.28c5 0 8.93-1.81 8.94-5.06 0-3.55-3-4.76-11.71-7.13C6 198.24.82 191.33.82 181.19s8.75-18.44 25.32-18.44a39 39 0 0 1 15.33 3.19C46.6 168 50 171 50.07 174.9zM95 162.79c-18.93 0-32.34 14.59-32.34 32.34S76.09 227.42 95 227.42s32.29-14.55 32.29-32.29S114 162.79 95 162.79zm0 50.08c-9.86 0-15.77-8.28-15.77-17.74s5.91-17.75 15.77-17.75 15.77 8.28 15.77 17.75-5.86 17.74-15.72 17.74zm47.67 5.48V138.7a8.68 8.68 0 0 1 17.35 0v79.65a8.75 8.75 0 0 1-8.67 8.68 8.51 8.51 0 0 1-8.68-8.68zm88.69-47.28a9.13 9.13 0 0 1-.79 3.15l-22.08 48.5a7.78 7.78 0 0 1-7.1 4.73c-3.15 0-5.52-2-7.09-4.73l-22.09-48.5a9.34 9.34 0 0 1-.78-3.15 7.58 7.58 0 0 1 7.49-7.89 7.4 7.4 0 0 1 7.1 4.73l15 35.49 15-35.49a7.8 7.8 0 0 1 7.1-4.73c5.09 0 8.24 3.55 8.24 7.89zm68.56 24.04c0-18.53-11.8-32.71-29.54-31.92-18.54 0-31.95 13.38-31.95 32.3 0 17.75 11 32.29 32.34 32.29 9.86 0 16.16-2.32 20.89-5.47 2.76-2 5.92-4.73 5.92-8.68 0-3.55-2.37-6.33-6.71-6.33-2.76 0-4.33 1.21-6.31 2.78a21.24 21.24 0 0 1-13 3.92c-9.86 0-14.6-5.91-15.39-13.4h37.87c4.33.02 5.88-2.73 5.88-5.49zm-43.75-6.71c1.19-7.1 6.18-12.24 14.31-12.21 7.31 0 12.09 5.51 13.27 12.21zM417 218.31a8.68 8.68 0 1 1-17.35 0v-26c0-8.29-3.55-14.59-12.23-14.59-9.46 0-12.62 7.09-12.62 14.59v26a8.68 8.68 0 1 1-17.35 0v-26c0-8.29-3.55-14.59-12.22-14.59-9.46 0-12.62 7.09-12.62 14.59v26a8.68 8.68 0 1 1-17.35 0v-46.53c0-4.73 3.16-8.67 8.68-8.67a8.5 8.5 0 0 1 8.67 8.67V173c3.55-6.7 10.25-10.25 17.75-10.25 9.07 0 15.77 3.94 19.71 10.65 4.34-6.31 12.23-10.65 21.69-10.65 17.35 0 25.24 11.83 25.24 28.79zm47.25-55.56c-19.32 0-33.1 13-33.1 32.34 0 17.74 11.41 32.29 30.73 32.29 9.07 0 15.37-3.93 18.53-9.45v.42c0 4.74 2.77 8.64 8.29 8.64s8.26-3.9 8.26-8.64v-23.26c.04-19.32-12.6-32.73-32.71-32.34zm-.41 50.05c-10.65 0-16.14-8.25-16.14-17.71 0-9.86 6.28-17.75 16.14-17.75 10.25 0 16.17 7.5 16.17 17.75-.01 9.46-5.56 17.71-16.17 17.71zm58.73 5.55v-39.8h-9.46a7.1 7.1 0 0 1 0-14.19h9.46v-17.78a8.67 8.67 0 0 1 17.34 0v17.79H551a7.09 7.09 0 0 1 0 14.18h-11.09v40.2a8.75 8.75 0 0 1-8.67 8.67c-2.59 0-8.67-2.74-8.67-9.07zm100.49-23.25c.12-16.91-10.15-32.15-29.54-31.92-18.92.23-32 13.46-32 32.31 0 17.75 11 32.34 32.33 32.34 9.86 0 16.17-2.37 20.9-5.52 2.76-2 5.91-4.74 5.91-8.68 0-3.55-2.36-6.31-6.7-6.31-2.76 0-4.33 1.18-6.31 2.76a21.25 21.25 0 0 1-13 3.94c-9.86 0-14.57-5.91-15.36-13.4h37.8c4.4 0 5.97-2.74 5.97-5.52zm-43.75-6.71c1.18-7.09 6.29-12.21 14.18-12.21 7.49 0 12.22 5.51 13.41 12.21z" fill="#5f2b77" data-name="Layer 2"/></svg>