<svg xmlns="http://www.w3.org/2000/svg" viewBox="0 0 84 80.88"><defs><style>.cls-1{fill:#575269}.cls-3{fill:#aaa8b4}</style></defs><g id="Layer_2" data-name="Layer 2"><g id="Layer_1-2" data-name="Layer 1"><path class="cls-1" d="M15.56 76.21v4.67h3.11v-3.11h7.77a4.68 4.68 0 0 0 4.67-4.67v-6.22h3.11a1.57 1.57 0 0 0 1.36-.79 1.6 1.6 0 0 0 0-1.57l-4.45-7.41v-4.23a15.56 15.56 0 1 0-31.13 0v28h3.11v-28a12.45 12.45 0 1 1 24.89 0v4.66a1.64 1.64 0 0 0 .22.81l3.26 5.42h-1.92A1.55 1.55 0 0 0 28 65.32v3.11a3.11 3.11 0 0 1-3.11-3.11h-3.11A6.23 6.23 0 0 0 28 71.54v1.56a1.56 1.56 0 0 1-1.56 1.56h-9.33a1.54 1.54 0 0 0-1.55 1.55z"/><path class="cls-1" d="M26.44 52.88h-3.11a1.56 1.56 0 0 1-3.11 0h-3.11a4.67 4.67 0 0 0 9.33 0z"/><path d="M64.52 20.48a13.12 13.12 0 0 0-1.89-17.21 12.62 12.62 0 0 0-16.14-.68L42 6l-4.49-3.41a12.62 12.62 0 0 0-16.13.68 13.11 13.11 0 0 0-1.9 17.21 30 30 0 0 0 5.2 5.71L41 40.06a1.56 1.56 0 0 0 2 0l16.32-13.87a30 30 0 0 0 5.2-5.71zM42 36.84l-15.31-13A26.77 26.77 0 0 1 22 18.69a10 10 0 0 1 1.47-13.11 9.49 9.49 0 0 1 12.15-.52l5.44 4.16a1.55 1.55 0 0 0 1.89 0l5.44-4.16a9.51 9.51 0 0 1 12.15.52A10 10 0 0 1 62 18.69a27.46 27.46 0 0 1-4.67 5.13z" fill="#00b697"/><path class="cls-3" d="M68.44 37.32a15.58 15.58 0 0 0-15.55 15.56v4.23l-4.45 7.41a1.6 1.6 0 0 0 0 1.57 1.57 1.57 0 0 0 1.36.79h3.11v6.22a4.68 4.68 0 0 0 4.67 4.67h7.77v3.11h3.11v-4.67a1.54 1.54 0 0 0-1.55-1.55h-9.35A1.56 1.56 0 0 1 56 73.1v-1.56a6.23 6.23 0 0 0 6.22-6.22h-3.11A3.11 3.11 0 0 1 56 68.43v-3.11a1.55 1.55 0 0 0-1.56-1.55h-1.92l3.26-5.42a1.64 1.64 0 0 0 .22-.81v-4.66a12.45 12.45 0 1 1 24.89 0v28H84v-28a15.58 15.58 0 0 0-15.56-15.56z"/><path class="cls-3" d="M62.22 54.43a1.56 1.56 0 0 1-1.55-1.55h-3.11a4.67 4.67 0 0 0 9.33 0h-3.11a1.56 1.56 0 0 1-1.56 1.55z"/></g></g></svg>