<svg xmlns="http://www.w3.org/2000/svg" viewBox="0 0 84 84"><defs><style>.cls-2{fill:#00b697}</style></defs><g id="Layer_2" data-name="Layer 2"><g id="Layer_1-2" data-name="Layer 1"><path d="M71.4 47.6H37.8v-35a1.4 1.4 0 0 0-1.4-1.4h-3.59a1.4 1.4 0 0 0-1.35 1l-1.19 4.25a32.49 32.49 0 0 0-4.07 1.09l-3.13-3.07a1.39 1.39 0 0 0-1.55-.27 35.88 35.88 0 0 0-6.46 3.8 1.41 1.41 0 0 0-.53 1.48l1.09 4.27a32.45 32.45 0 0 0-3 3L8.4 25.62a1.39 1.39 0 0 0-1.48.54 36.34 36.34 0 0 0-3.74 6.49 1.4 1.4 0 0 0 .28 1.54l3.06 3.16a31.57 31.57 0 0 0-1.09 4.09L1 42.64A1.4 1.4 0 0 0 0 44v7.22a1.4 1.4 0 0 0 1 1.35l4.4 1.2a31.57 31.57 0 0 0 1.09 4.09L3.46 61a1.42 1.42 0 0 0-.28 1.55A37.27 37.27 0 0 0 6.91 69a1.41 1.41 0 0 0 1.49.54l4.23-1.09a32.45 32.45 0 0 0 3 3l-1.09 4.27a1.41 1.41 0 0 0 .53 1.48 35.88 35.88 0 0 0 6.45 3.8 1.39 1.39 0 0 0 1.55-.27l3.13-3.07a32.49 32.49 0 0 0 4.07 1.09L31.46 83a1.4 1.4 0 0 0 1.35 1H40a1.4 1.4 0 0 0 1.35-1l1.19-4.25a32.81 32.81 0 0 0 4.06-1.09l3.13 3.07a1.41 1.41 0 0 0 1.56.27 36.23 36.23 0 0 0 6.46-3.75 1.41 1.41 0 0 0 .53-1.48l-1.09-4.27a31.15 31.15 0 0 0 3-3l4.24 1.09a1.39 1.39 0 0 0 1.45-.59 36.69 36.69 0 0 0 3.74-6.49 1.41 1.41 0 0 0-.28-1.51l-3.06-3.15a31.57 31.57 0 0 0 1.09-4.09l4.4-1.2a1.4 1.4 0 0 0 1-1.35V49a1.4 1.4 0 0 0-1.37-1.4zm-35 2.8h20.79A21 21 0 1 1 35 26.65V49a1.4 1.4 0 0 0 1.4 1.4zm29.38.89a1.39 1.39 0 0 0-1 1.12 29 29 0 0 1-1.41 5.31 1.39 1.39 0 0 0 .31 1.46l3 3.09a32.89 32.89 0 0 1-2.5 4.35L60 65.56a1.41 1.41 0 0 0-1.43.46 28.38 28.38 0 0 1-3.86 3.89 1.37 1.37 0 0 0-.46 1.42l1.06 4.18A34.64 34.64 0 0 1 51 78l-3.06-3a1.4 1.4 0 0 0-1.47-.31 28.53 28.53 0 0 1-5.28 1.41 1.4 1.4 0 0 0-1.11 1l-1.15 4.1h-5.06l-1.14-4.07a1.4 1.4 0 0 0-1.11-1 28.32 28.32 0 0 1-5.28-1.41 1.4 1.4 0 0 0-1.47.31l-3.06 3a32.1 32.1 0 0 1-4.33-2.51l1.06-4.18a1.37 1.37 0 0 0-.46-1.42A29 29 0 0 1 14.22 66a1.4 1.4 0 0 0-1.43-.46l-4.15 1.08a34.1 34.1 0 0 1-2.51-4.35l3-3.09a1.39 1.39 0 0 0 .31-1.46A29 29 0 0 1 8 52.41a1.4 1.4 0 0 0-1-1.12l-4.2-1.15v-5.08L7 43.91a1.41 1.41 0 0 0 1-1.12 28.83 28.83 0 0 1 1.41-5.31A1.38 1.38 0 0 0 9.13 36l-3-3.09a34.93 34.93 0 0 1 2.51-4.36l4.15 1.07a1.4 1.4 0 0 0 1.43-.47 28.88 28.88 0 0 1 3.86-3.88 1.38 1.38 0 0 0 .46-1.42l-1.06-4.18a33.26 33.26 0 0 1 4.33-2.52l3.06 3a1.4 1.4 0 0 0 1.47.31 29.13 29.13 0 0 1 5.28-1.42 1.38 1.38 0 0 0 1.11-1L33.87 14H35v9.87A23.78 23.78 0 1 0 60 50.4h9.07z" fill="#aaa8b4"/><path class="cls-2" d="M83 31.44l-4.4-1.2a31.57 31.57 0 0 0-1.09-4.09L80.54 23a1.4 1.4 0 0 0 .28-1.54A36.69 36.69 0 0 0 77.08 15a1.41 1.41 0 0 0-1.48-.54l-4.24 1.09a31.15 31.15 0 0 0-3-3l1.09-4.27a1.41 1.41 0 0 0-.53-1.48A36.54 36.54 0 0 0 62.48 3a1.41 1.41 0 0 0-1.55.28L57.8 6.36a33 33 0 0 0-4.07-1.09L52.54 1a1.4 1.4 0 0 0-1.35-1H47.6a1.4 1.4 0 0 0-1.4 1.4v36.4a1.4 1.4 0 0 0 1.4 1.4h35a1.4 1.4 0 0 0 1.4-1.4v-5a1.4 1.4 0 0 0-1-1.36zm-34 5V15.45a21 21 0 0 1 19.6 21zm32.2 0h-9.8A23.81 23.81 0 0 0 49 12.67V2.8h1.13l1.14 4.07a1.39 1.39 0 0 0 1.11 1 29.13 29.13 0 0 1 5.28 1.42A1.4 1.4 0 0 0 59.13 9l3.06-3a33.45 33.45 0 0 1 4.33 2.52l-1.07 4.18a1.4 1.4 0 0 0 .47 1.42A29.56 29.56 0 0 1 69.78 18a1.41 1.41 0 0 0 1.43.46l4.15-1.06a34.1 34.1 0 0 1 2.51 4.35l-3 3.09a1.38 1.38 0 0 0-.31 1.46A28.83 28.83 0 0 1 76 31.59a1.4 1.4 0 0 0 1 1.12l4.22 1.15z"/><path d="M35 53.2h2.8V56H35zm-5.6-5.6h2.8v2.8h-2.8z" fill="#575269"/><path class="cls-2" d="M51.8 30.8h2.8v2.8h-2.8z"/></g></g></svg>