<svg xmlns="http://www.w3.org/2000/svg" viewBox="0 0 84 84"><defs><style>.cls-2{fill:#575269}.cls-3{fill:#aaa8b4}</style></defs><g id="Layer_2" data-name="Layer 2"><g id="Layer_1-2" data-name="Layer 1"><path d="M66.19 7.06a11.2 11.2 0 1 0 11.2 11.2 11.19 11.19 0 0 0-11.2-11.2zm-.55 16.25a1.87 1.87 0 0 1-1.32.55 1.91 1.91 0 0 1-1.32-.55l-3.73-3.73 2.64-2.64 2.41 2.41 6.15-6.15 2.64 2.64z" fill="#00b697"/><path class="cls-2" d="M70.28 69.22V69a7.44 7.44 0 0 1 1.19-4 6.55 6.55 0 1 0-11.19-.11A7.89 7.89 0 0 1 61.54 69v.22a1.09 1.09 0 0 0 1.09 1.1h6.56a1.09 1.09 0 0 0 1.09-1.09zm-6.6-1.09a10.42 10.42 0 0 0-1.53-4.34 4.36 4.36 0 0 1 1.51-6 4.3 4.3 0 0 1 1.3-.51 4.38 4.38 0 0 1 5.22 3.33 4.92 4.92 0 0 1 .1.94 4.27 4.27 0 0 1-.66 2.28 9.89 9.89 0 0 0-1.49 4.27z"/><path class="cls-2" d="M62.55 60.12h2.18v2.52h-2.18zm5.95 11.54v1.69h-5.07v-1.69m.85 2.53h3.38v1.69h-3.38z"/><path class="cls-3" d="M84 18.2a18.19 18.19 0 0 0-36.33-1.4H36.33A18.19 18.19 0 1 0 16.8 36.33v11.34A18.19 18.19 0 1 0 36.33 67.2h11.34A18.19 18.19 0 1 0 67.2 47.67V36.33A18.22 18.22 0 0 0 84 18.2zM65.8 2.8a15.4 15.4 0 1 1-15.4 15.4A15.41 15.41 0 0 1 65.8 2.8zM55.51 33.2l.55.35c.29.18.57.36.88.53s.4.22.61.32.59.3.9.44l.66.28c.31.12.61.23.93.33s.46.16.7.22.64.18 1 .25l.72.16q.51.09 1 .15c.24 0 .47.07.72.09h.24v11.34a2 2 0 0 0-.24 0l-.72.08-1 .16-.72.16c-.32.07-.65.15-1 .24l-.7.22-.93.34-.66.28c-.31.14-.6.28-.9.44s-.41.2-.61.32-.59.35-.88.53l-.55.35c-.32.22-.62.45-.91.68l-.42.33a18.22 18.22 0 0 0-2.37 2.36l-.32.42c-.24.3-.47.6-.69.91l-.35.55c-.18.29-.36.58-.53.88l-.32.61c-.15.3-.3.6-.44.9s-.18.44-.28.66-.23.62-.33.93-.16.46-.22.7-.18.64-.25 1-.11.48-.16.72-.11.68-.15 1-.07.48-.09.72v.24H36.35v-.24c0-.24-.06-.48-.09-.72s-.09-.68-.16-1-.1-.48-.15-.72-.16-.64-.25-1-.14-.47-.22-.7-.22-.62-.34-.93-.18-.44-.28-.66-.28-.6-.43-.9l-.32-.61c-.17-.3-.35-.59-.54-.88s-.23-.37-.35-.55-.45-.61-.68-.91l-.32-.42a19 19 0 0 0-2.37-2.37l-.42-.32c-.3-.24-.6-.47-.91-.69l-.55-.35c-.29-.18-.58-.36-.88-.53l-.61-.32-.9-.44-.66-.28q-.47-.18-.93-.33c-.23-.08-.46-.16-.7-.22s-.64-.18-1-.25l-.72-.16q-.51-.09-1-.15l-.72-.09h-.24v-11.3h.24l.72-.09c.34 0 .68-.09 1-.16l.72-.15 1-.25.7-.22.93-.34.66-.28.9-.43c.2-.11.42-.21.61-.32s.59-.35.88-.54.37-.23.55-.35.61-.45.91-.68l.42-.32a19 19 0 0 0 2.37-2.37l.32-.42c.24-.3.47-.6.69-.91l.35-.55c.18-.29.36-.58.53-.88l.32-.61c.15-.3.3-.6.44-.9s.18-.44.28-.66.23-.62.33-.93.16-.46.22-.7.18-.64.25-1 .11-.48.16-.72.11-.68.15-1 .07-.48.09-.72v-.24h11.31a2 2 0 0 0 0 .24c0 .24.05.48.08.72s.1.68.16 1 .1.48.16.72.15.64.24 1 .15.47.22.7.22.62.34.93.18.44.28.66.28.6.44.9.2.42.32.61.35.59.53.88l.35.55c.22.31.45.61.68.91l.33.42a18.22 18.22 0 0 0 2.36 2.37l.42.32c.32.21.62.46.94.66zM2.8 18.2a15.4 15.4 0 1 1 15.4 15.4A15.41 15.41 0 0 1 2.8 18.2zm15.4 63a15.4 15.4 0 1 1 15.4-15.4 15.41 15.41 0 0 1-15.4 15.4zm63-15.4a15.4 15.4 0 1 1-15.4-15.4 15.41 15.41 0 0 1 15.4 15.4z"/><path class="cls-3" d="M8.4 15.4h2.8v8.4H8.4zm5.6-7h2.8v15.4H14zm5.6 4.2h2.8v11.2h-2.8zm5.6-1.4H28v12.6h-2.8z"/><path class="cls-2" d="M21 54.6a1.4 1.4 0 0 0-1.4 1.4v7a1.4 1.4 0 0 0 1.4 1.4h7a1.4 1.4 0 0 0 1.4-1.4 8.4 8.4 0 0 0-8.4-8.4zm1.4 7v-4a5.61 5.61 0 0 1 4 4z"/><path class="cls-3" d="M23.8 65.8h-5.6v-5.6a1.4 1.4 0 0 0-1.4-1.4 8.4 8.4 0 1 0 8.4 8.4 1.4 1.4 0 0 0-1.4-1.4zm-7 7a5.6 5.6 0 0 1-1.4-11v5.4a1.4 1.4 0 0 0 1.4 1.4h5.42a5.6 5.6 0 0 1-5.42 4.2z"/></g></g></svg>