<svg xmlns="http://www.w3.org/2000/svg" viewBox="0 0 65.43 84"><defs><style>.cls-1{fill:none}.cls-2{fill:#00b798}.cls-4{fill:#575269}</style></defs><g id="Layer_2" data-name="Layer 2"><g id="Layer_1-2" data-name="Layer 1"><path class="cls-1" d="M40.44 63.5a30.2 30.2 0 0 1 6.94-18.35 19.24 19.24 0 1 0-29.81-.57A33.09 33.09 0 0 1 25 63.5"/><path class="cls-1" d="M30.79 60v-7.25l-4.21-4.21a11.81 11.81 0 0 1-3.49-8.41 3.57 3.57 0 0 1 3.57-3.57h3.11a3.53 3.53 0 0 1 2.94 1.55 3.54 3.54 0 0 1 2.94-1.55h3.12a3.57 3.57 0 0 1 3.56 3.57 11.8 11.8 0 0 1-3.48 8.41l-.93.93-2.72-2.72.93-.93a8 8 0 0 0 2.35-5.41h-2.66a3.56 3.56 0 0 1-6.21 0H27a7.92 7.92 0 0 0 2.35 5.41l4.77 4.78a1.87 1.87 0 0 1 .52 1.4v8"/><path class="cls-2" d="M34.64 52a1.87 1.87 0 0 0-.57-1.36l-4.77-4.82a7.92 7.92 0 0 1-2.3-5.41h2.66a3.56 3.56 0 0 0 6.21 0h2.66a8 8 0 0 1-2.35 5.41l-.93.93 2.72 2.72.93-.93a11.8 11.8 0 0 0 3.48-8.41 3.57 3.57 0 0 0-3.56-3.57h-3.17a3.54 3.54 0 0 0-2.94 1.55 3.53 3.53 0 0 0-2.94-1.55h-3.11a3.57 3.57 0 0 0-3.57 3.57 11.81 11.81 0 0 0 3.49 8.41l4.21 4.21V60h3.85z"/><path d="M48.1 15.5A23.08 23.08 0 0 0 14.55 47a29 29 0 0 1 6.62 18v.49a1.92 1.92 0 0 0 1.92 1.92h19.24a1.92 1.92 0 0 0 1.93-1.92v-.5a26.57 26.57 0 0 1 6.05-17.28A23.08 23.08 0 0 0 48.1 15.5zM25 63.5a33.09 33.09 0 0 0-7.41-18.92 19.18 19.18 0 0 1-3.86-14.94 19.38 19.38 0 0 1 16.78-16 19.23 19.23 0 0 1 16.87 31.51 30.2 30.2 0 0 0-6.94 18.35z" fill="#aaa8b4"/><path class="cls-4" d="M25.02 69.27h15.39v3.85H25.02zm3.84 10.88h7.7V84h-7.7z"/><path class="cls-2" d="M30.79 0h3.85v5.77h-3.85zm28.86 30.79h5.77v3.85h-5.77zM0 30.79h5.77v3.85H0z"/><path class="cls-2" transform="rotate(-44.99 53.801 53.808)" d="M51.88 50.92h3.85v5.77h-3.85z"/><path class="cls-2" transform="rotate(-44.99 11.62 11.63)" d="M9.7 8.74h3.85v5.77H9.7z"/><path class="cls-2" transform="rotate(-45 53.805 11.623)" d="M50.92 9.7h5.77v3.85h-5.77z"/><path class="cls-2" transform="rotate(-45 11.626 53.804)" d="M8.74 51.88h5.77v3.85H8.74z"/><path class="cls-4" d="M26.94 74.71h11.55v3.85H26.94z"/></g></g></svg>