<svg xmlns="http://www.w3.org/2000/svg" viewBox="0 0 80.05 84"><defs><style>.cls-2{fill:#abaab4}</style></defs><g id="Layer_2" data-name="Layer 2"><g id="Layer_1-2" data-name="Layer 1"><path d="M50.16 68.21h-6v-1.13a3.39 3.39 0 0 0-6.77 0v1.13h-5.65c-2.32 0-4.14 1.49-4.14 3.38a3.08 3.08 0 0 0 1 2.26 3 3 0 0 0-.3 4.21q.15.16.3.3a3.08 3.08 0 0 0-1 2.26c0 1.89 1.82 3.38 4.14 3.38h18.42a1.13 1.13 0 0 0 1.13-1.13V69.34a1.14 1.14 0 0 0-1.13-1.13zm-20.3 12.41c0-.54.8-1.13 1.88-1.13a1.13 1.13 0 1 0 0-2.26c-1.08 0-1.88-.59-1.88-1.12s.8-1.11 1.88-1.11a1.13 1.13 0 1 0 0-2.26c-1.08 0-1.88-.59-1.88-1.13s.8-1.12 1.88-1.12h6.77a1.13 1.13 0 0 0 1.12-1.13v-2.28a1.13 1.13 0 0 1 2.26 0v2.26A1.13 1.13 0 0 0 43 70.47h1.5v11.27H31.74c-1.08 0-1.88-.59-1.88-1.12zM49 81.74h-2.22V70.47H49z" fill="#575269"/><path class="cls-2" d="M54.11 14.66a14.67 14.67 0 1 0-14.66 14.66 14.66 14.66 0 0 0 14.66-14.66zm-27 1.13h2.19v-2.26h-2.2A12.41 12.41 0 0 1 38.32 2.31v2.2h2.25v-2.2a12.41 12.41 0 0 1 11.22 11.22H49.6v2.26h2.19A12.41 12.41 0 0 1 40.57 27v-2.2h-2.25V27A12.41 12.41 0 0 1 27.1 15.79z"/><path d="M38.32 18.05a1.15 1.15 0 0 0 .8-.33L45.88 11l-1.59-1.6-6 6-3.69-3.79L33 13.2l4.51 4.52a1.14 1.14 0 0 0 .81.33z" fill="#00b697"/><path class="cls-2" d="M61.79 21.57l-.63 2.71a20.83 20.83 0 0 1 4.52 39l2.09-4.44-2.52-1.18-4 8.43a1.37 1.37 0 0 0 0 1.26 1.4 1.4 0 0 0 1 .71L72 69.21l.32-2.76-5.59-.66a23.61 23.61 0 0 0-5.08-44.18zM19.87 69.4l.44-2.75a20.83 20.83 0 0 1-7.2-38.56l-1.78 4.58 2.59 1L17.29 25a1.39 1.39 0 0 0-1.23-1.89l-9.8-.47-.14 2.76 5.62.27a23.61 23.61 0 0 0 8.13 43.73z"/></g></g></svg>