<svg xmlns="http://www.w3.org/2000/svg" viewBox="0 0 82.61 84"><defs><style>.cls-2{fill:#575269}.cls-3{fill:#00b697}.cls-4{fill:none}</style></defs><g id="Layer_2" data-name="Layer 2"><g id="Layer_1-2" data-name="Layer 1"><path d="M7.4 64.79a36.13 36.13 0 0 0-2.32 3.54A41 41 0 0 0 0 82.22l2.76.47A35.92 35.92 0 0 1 3.86 78l.28-.81c4.12.79 8.76 1.45 13.87 2 0 .23-.07.47-.1.7-.06.45-.11 1.33-.16 2.17 0 .66-.07 1.3-.11 1.66l2.78.29c0-.39.08-1.08.12-1.79s.09-1.57.14-2 .09-.53.13-.79c6.17.54 12.58.83 19.1.86v3.55h2.8V80.3c6.15 0 12.18-.29 18-.77 0 .27.1.53.13.8.06.48.12 1.54.16 2.42 0 .5 0 .94.07 1.21l2.79-.21c0-.26 0-.68-.07-1.14 0-1-.11-2.08-.18-2.63 0-.23-.06-.46-.09-.7 5.41-.51 10.43-1.21 15-2.08.09.27.19.54.27.82a37 37 0 0 1 1.11 4.67l2.75-.47a37.17 37.17 0 0 0-1.19-5 41.67 41.67 0 0 0-3.88-8.87 37 37 0 0 0-2.32-3.52 51.68 51.68 0 0 0-2-2.57 1.3 1.3 0 0 0 .25-.75V48.38l2-1a1.4 1.4 0 0 0 .78-1.25v-7.3A5.31 5.31 0 0 0 73.13 34a5.5 5.5 0 0 0 .19-3 5.59 5.59 0 0 0-11 1.18A5.32 5.32 0 0 0 62.6 34a5.5 5.5 0 0 0-1.6 1.09 5.29 5.29 0 0 0-1.53 3.73v7.3a1.39 1.39 0 0 0 .77 1.25l2 1v4.75a40.69 40.69 0 0 0-5.64-2.72 41.47 41.47 0 0 0-34.89 2v-4l2-1a1.4 1.4 0 0 0 .78-1.25v-7.3A5.31 5.31 0 0 0 21.42 34a5.5 5.5 0 0 0 .19-3 5.59 5.59 0 0 0-11 1.18 5.32 5.32 0 0 0 .28 1.82 5.5 5.5 0 0 0-1.59 1.09 5.29 5.29 0 0 0-1.53 3.73v7.3a1.4 1.4 0 0 0 .77 1.25l2 1V61a43 43 0 0 0-3.14 3.79zm14.85-9.53A17.53 17.53 0 0 0 25.12 57a56.22 56.22 0 0 0-3.9 8.79c-3.5-.3-6.89-.69-10.12-1.15a38.91 38.91 0 0 1 11.15-9.38zm49.26 9.33c-3.62.52-7.38.94-11.22 1.26a57.89 57.89 0 0 0-3.72-8.49 18.89 18.89 0 0 0 3.79-2.1 38.88 38.88 0 0 1 11.15 9.33zm-17.6-6.26a54.59 54.59 0 0 1 3.49 7.73c-4.85.32-9.78.49-14.69.52v-6.53a42.25 42.25 0 0 0 11.2-1.72zm-14 8.25c-5.37 0-10.68-.24-15.8-.61A54 54 0 0 1 27.72 58a40.93 40.93 0 0 0 12.19 2zm-34.79 8a41.12 41.12 0 0 1 2.37-4.8C8 68.81 8.6 68 9.17 67.14c3.53.54 7.27 1 11.15 1.33-.2.67-.4 1.36-.6 2.09-.51 1.92-.93 3.88-1.28 5.86-4.89-.5-9.35-1.13-13.32-1.88zm16.13 2.13c.32-1.82.7-3.62 1.17-5.38.25-.92.5-1.77.75-2.58 5.41.41 11 .63 16.74.67v8.13c-6.37-.08-12.63-.36-18.66-.88zm21.46.84v-8.17c5.23 0 10.47-.23 15.6-.58.27.86.54 1.72.76 2.58.47 1.77.84 3.58 1.17 5.38-5.65.46-11.53.71-17.53.75zm34.78-3c-4.4.82-9.23 1.49-14.44 2-.35-2-.76-3.92-1.27-5.85-.19-.7-.41-1.39-.62-2.09 4.22-.36 8.34-.84 12.28-1.44.57.81 1.14 1.67 1.69 2.61a38.69 38.69 0 0 1 2.36 4.76zm-13.2-28.28l-2-1v-6.45a2.51 2.51 0 0 1 .71-1.75 2.55 2.55 0 0 1 1.78-.73A1.41 1.41 0 0 0 66 35.5a1.38 1.38 0 0 0-.25-1.5 2.77 2.77 0 0 1-.72-1.86 2.79 2.79 0 0 1 5.52-.59 2.77 2.77 0 0 1-.63 2.45 1.38 1.38 0 0 0-.23 1.5 1.39 1.39 0 0 0 1.27.83 2.49 2.49 0 0 1 2.49 2.48v6.44l-2 1a1.39 1.39 0 0 0-.77 1.25v12a41.57 41.57 0 0 0-5.57-4.61v-7.37a1.38 1.38 0 0 0-.82-1.25zM27 53a39.42 39.42 0 0 1 28.6 0c.64.25 1.25.53 1.87.81-3.78 2.19-9.72 3.49-16.16 3.49S28.92 56 25.14 53.82c.61-.28 1.23-.56 1.86-.82zM10.56 38.82a2.51 2.51 0 0 1 .71-1.75 2.55 2.55 0 0 1 1.78-.73 1.41 1.41 0 0 0 1.28-.84 1.38 1.38 0 0 0-.25-1.5 2.77 2.77 0 0 1-.72-1.86 2.79 2.79 0 0 1 5.52-.59 2.77 2.77 0 0 1-.67 2.45 1.38 1.38 0 0 0-.23 1.5 1.39 1.39 0 0 0 1.27.83 2.48 2.48 0 0 1 2.49 2.48v6.44l-2 1a1.39 1.39 0 0 0-.74 1.27V54a41 41 0 0 0-5.59 4.2V47.52a1.38 1.38 0 0 0-.78-1.25l-2-1z" fill="#abaab4"/><path class="cls-2" d="M24.54 5.59h8.39v2.8h-8.39zm11.18 0h4.19v2.8h-4.19zm-11.18 5.59h5.59v2.8h-5.59zm8.38 0h6.99v2.8h-6.99z"/><path class="cls-3" d="M48.3 9.78h9.78v2.8H48.3zm0 5.59h2.8v2.8h-2.8zm5.59 0h4.19v2.8h-4.19z"/><path class="cls-4" d="M42.71 21h5.59a1.4 1.4 0 0 1 .89.33l5.34 4.45-.62-3.11a1.43 1.43 0 0 1 .29-1.16 1.41 1.41 0 0 1 1.08-.51h2.8a2.79 2.79 0 0 0 2.79-2.79V9.78A2.79 2.79 0 0 0 58.08 7H45.5v7a5.58 5.58 0 0 1-5.22 5.55 3.19 3.19 0 0 0 .35.47 2.75 2.75 0 0 0 2.08.98z"/><path class="cls-4" d="M39.91 2.8H24.54a2.8 2.8 0 0 0-2.8 2.79V14a2.8 2.8 0 0 0 2.8 2.79h2.79a1.43 1.43 0 0 1 1.14.58 1.41 1.41 0 0 1 .19 1.26l-1.2 3.6 5.95-5.1a1.39 1.39 0 0 1 .91-.34h5.59a2.8 2.8 0 0 0 2.8-2.79V5.59a2.8 2.8 0 0 0-2.8-2.79z"/><path class="cls-4" d="M39.91 2.8H24.54a2.8 2.8 0 0 0-2.8 2.79V14a2.8 2.8 0 0 0 2.8 2.79h2.79a1.43 1.43 0 0 1 1.14.58 1.41 1.41 0 0 1 .19 1.26l-1.2 3.6 5.95-5.1a1.39 1.39 0 0 1 .91-.34h5.59a2.8 2.8 0 0 0 2.8-2.79V5.59a2.8 2.8 0 0 0-2.8-2.79z"/><path class="cls-3" d="M40.47 21c.76 2.18.8 2.76 3.24 2.76h4.08l8 6.66a1.35 1.35 0 0 0 .89.33 1.45 1.45 0 0 0 .72-.2 1.41 1.41 0 0 0 .65-1.48L57 23.76h1.09a5.6 5.6 0 0 0 5.59-5.59V9.78a5.6 5.6 0 0 0-5.59-5.59h-9.78V7h9.77a2.79 2.79 0 0 1 2.79 2.79v8.39A2.79 2.79 0 0 1 58.08 21h-2.8a1.41 1.41 0 0 0-1.08.51 1.43 1.43 0 0 0-.29 1.16l.62 3.11-5.34-4.45a1.4 1.4 0 0 0-.89-.33h-3.59z"/><path class="cls-2" d="M45.3 4.19A5.58 5.58 0 0 0 39.91 0H24.54A5.59 5.59 0 0 0 19 5.59V14a5.59 5.59 0 0 0 5.59 5.59h.85l-2.18 6.54a1.39 1.39 0 0 0 .55 1.6 1.39 1.39 0 0 0 1.69-.1l9.39-8h5.47A5.58 5.58 0 0 0 45.5 14V7m-2.79 7a2.8 2.8 0 0 1-2.8 2.79h-5.59a1.39 1.39 0 0 0-.91.34l-5.95 5.1 1.2-3.6a1.41 1.41 0 0 0-.19-1.26 1.43 1.43 0 0 0-1.14-.58h-2.79a2.8 2.8 0 0 1-2.8-2.79V5.59a2.8 2.8 0 0 1 2.8-2.79h15.37a2.8 2.8 0 0 1 2.8 2.79z"/></g></g></svg>