<svg width="12" height="8" xmlns="http://www.w3.org/2000/svg"><path d="M11.88 4.396c.02-.018.02-.036.02-.054.02-.018.04-.054.04-.072 0-.018.02-.036.02-.072 0-.018.02-.054.02-.072 0-.036.02-.072.02-.108v-.072c0-.036 0-.072-.02-.108 0-.036-.02-.054-.02-.072 0-.018-.02-.036-.02-.054-.02-.036-.04-.054-.06-.09 0-.018-.02-.018-.02-.036-.04-.036-.06-.072-.1-.109L8.14.217a.86.86 0 00-1.14 0 .67.67 0 000 1.026L9.26 3.28H.8c-.44 0-.8.325-.8.721 0 .396.36.72.8.72h8.46L7 6.758a.67.67 0 000 1.027.834.834 0 001.12 0l3.64-3.28.12-.108z" fill="#FFF"/></svg>